<?xml version="1.0" encoding="utf-8"?>
<!-- Generator: Adobe Illustrator 26.5.0, SVG Export Plug-In . SVG Version: 6.00 Build 0)  -->
<svg version="1.1" id="Layer_1" xmlns="http://www.w3.org/2000/svg" xmlns:xlink="http://www.w3.org/1999/xlink" x="0px" y="0px"
	 viewBox="0 0 540 562" style="enable-background:new 0 0 540 562;" xml:space="preserve">
<style type="text/css">
	.st0{fill-rule:evenodd;clip-rule:evenodd;}
	.st1{fill:#FFFFFF;stroke:#000000;stroke-width:2.1794;}
	.st2{fill:#23A094;stroke:#000000;stroke-width:1;stroke-miterlimit:4;}
	.st3{fill:#23A094;filter:url(#Adobe_OpacityMaskFilter);stroke:#000000;stroke-width:1;stroke-miterlimit:4;}
	.st4{mask:url(#mask0_935_15804_00000027588898779068552870000018313848578539452582_);}
	.st5{fill:#FF90E8;stroke:#000000;}
	.st6{fill:#F1F333;stroke:#000000;}
	.st7{fill:none;stroke:#000000;}
	.st8{fill:#23A094;stroke:#000000;stroke-width:0.5448;}
	.st9{fill:#FFFFFF;stroke:#000000;stroke-width:1.2216;}
	.st10{fill:#F17071;stroke:#000000;stroke-width:1.2216;}
	.st11{fill:#D6D3D1;}
	.st12{fill:#FFC900;}
	.st13{fill:#E7E5E4;stroke:#000000;stroke-width:1.2216;}
	.st14{fill:#FFFFFF;stroke:#000000;stroke-width:1.3312;}
	.st15{fill:#E7E5E4;stroke:#000000;stroke-width:1.3312;}
	.st16{fill:#F4F4F4;stroke:#000000;stroke-width:2;}
	.st17{fill:none;stroke:#FFFFFF;}
	.st18{fill:#FFFFFF;stroke:#000000;stroke-width:2;}
	.st19{fill:#E2442F;}
	.st20{fill:#23A094;}
	.st21{fill:#F2A11F;stroke:#000000;stroke-width:2.1794;stroke-miterlimit:10;}
	.st22{fill:#1E73A9;stroke:#000000;stroke-width:2.1794;stroke-miterlimit:10;}
	.st23{fill:#F17071;stroke:#000000;stroke-width:2.1794;stroke-miterlimit:10;}
	.st24{fill:#EE2432;stroke:#000000;stroke-width:2.1794;stroke-miterlimit:10;}
	.st25{fill-rule:evenodd;clip-rule:evenodd;fill:#FFFFFF;stroke:#000000;stroke-width:2;stroke-miterlimit:10;}
	.st26{fill:#FFFFFF;stroke:#0B0B0B;stroke-width:2;stroke-miterlimit:10;}
	.st27{fill:#FFFFFF;stroke:#000000;stroke-width:2;stroke-miterlimit:10;}
	.st28{fill:#F1F0EE;filter:url(#Adobe_OpacityMaskFilter_00000079471531107349083610000011957933689956199092_);}
	.st29{mask:url(#mask0_2639_62257_00000063602648080736746720000008886193299204248759_);}
	.st30{fill:none;stroke:#0B0B0B;stroke-width:2.5033;stroke-linecap:round;}
	.st31{fill:none;stroke:#0B0B0B;stroke-width:2.5033;}
	.st32{fill:#F2A11F;}
	.st33{fill:#ECEAE8;}
	.st34{clip-path:url(#SVGID_00000117640357890953965750000010911662991018533811_);}
	.st35{fill:#0B0B0B;}
	.st36{fill:none;stroke:#0B0B0B;stroke-width:2.0026;stroke-linecap:round;stroke-linejoin:round;}
	.st37{fill:#FFC224;}
	.st38{fill:#FFFFFF;stroke:#0B0B0B;stroke-width:2.0026;stroke-linecap:round;stroke-linejoin:round;}
	.st39{fill:none;stroke:#FF4A60;stroke-width:2.0026;stroke-linecap:round;stroke-linejoin:round;}
	.st40{fill:#FF4A60;}
	.st41{fill:#FFFFFF;}
	.st42{fill:#0B0B0B;stroke:#0B0B0B;stroke-width:0.3078;}
	.st43{fill:#FFFFFF;stroke:#0B0B0B;stroke-width:0.3078;}
	.st44{fill:#F17071;stroke:#0B0B0B;stroke-width:0.3078;}
	.st45{fill:none;stroke:#0B0B0B;stroke-width:0.3078;}
	.st46{fill-rule:evenodd;clip-rule:evenodd;fill:#0B0B0B;}
	
		.st47{fill-rule:evenodd;clip-rule:evenodd;fill:#FFFFFF;filter:url(#Adobe_OpacityMaskFilter_00000065775147775393320360000016946790046816284302_);}
	.st48{mask:url(#path-1-inside-1_2621_23709_00000024688608123874989420000018262760125316282798_);fill:#0B0B0B;}
	.st49{fill:#FFFFFF;stroke:#0B0B0B;stroke-width:0.3655;}
	.st50{fill:#16743C;}
	.st51{fill:none;stroke:#0B0B0B;stroke-width:0.3655;}
	.st52{fill:none;stroke:#0B0B0B;stroke-width:0.3655;stroke-linecap:round;}
	.st53{fill:#16743C;stroke:#0B0B0B;stroke-width:0.3655;}
	.st54{fill:#FFFFFF;stroke:#0B0B0B;stroke-width:0.2813;}
	.st55{fill:#F2A11F;stroke:#0B0B0B;stroke-width:0.2813;}
	.st56{fill-rule:evenodd;clip-rule:evenodd;fill:#FFFFFF;}
	.st57{fill:none;stroke:#0B0B0B;stroke-width:0.2813;}
</style>
<path class="st0" d="M58.3,37.3c0-9,7.3-16.3,16.3-16.3h68.5c9,0,16.3,7.3,16.3,16.3v66.4c0,9-7.3,16.3-16.3,16.3H74.7
	c-9,0-16.3-7.3-16.3-16.3V37.3z M239.2,48.4c-3,0-5.4,2.4-5.4,5.4v201.6c0,3,2.4,5.4,5.4,5.4h294.2c3,0,5.4-2.4,5.4-5.4V53.9
	c0-3-2.4-5.4-5.4-5.4H239.2z M14.7,313.9c-3,0-5.4,2.4-5.4,5.4v201.6c0,3,2.4,5.4,5.4,5.4h294.2c3,0,5.4-2.4,5.4-5.4V319.3
	c0-3-2.4-5.4-5.4-5.4H14.7z M58.3,177.9c0-9,7.3-16.3,16.3-16.3h68.5c9,0,16.3,7.3,16.3,16.3v66.4c0,9-7.3,16.3-16.3,16.3H74.7
	c-9,0-16.3-7.3-16.3-16.3V177.9z M414.1,461.8c-9,0-16.3,7.3-16.3,16.3v66.4c0,9,7.3,16.3,16.3,16.3h68.5c9,0,16.3-7.3,16.3-16.3
	v-66.4c0-9-7.3-16.3-16.3-16.3H414.1z M413,313.6c-9,0-16.3,7.3-16.3,16.3v66.4c0,9,7.3,16.3,16.3,16.3h68.5c9,0,16.3-7.3,16.3-16.3
	v-66.4c0-9-7.3-16.3-16.3-16.3H413z"/>
<path d="M74.7,20c-9.6,0-17.3,7.8-17.3,17.3h2c0-8.5,6.9-15.3,15.3-15.3V20z"/>
<rect x="74.7" y="20" width="68.5" height="2"/>
<path d="M160.5,37.3c0-9.6-7.8-17.3-17.3-17.3v2c8.5,0,15.3,6.9,15.3,15.3H160.5z"/>
<rect x="158.5" y="37.3" width="2" height="66.4"/>
<path d="M143.1,121.1c9.6,0,17.3-7.8,17.3-17.3h-2c0,8.5-6.9,15.3-15.3,15.3V121.1z"/>
<rect x="74.7" y="119.1" width="68.5" height="2"/>
<path d="M57.3,103.7c0,9.6,7.8,17.3,17.3,17.3v-2c-8.5,0-15.3-6.9-15.3-15.3H57.3z"/>
<rect x="57.3" y="37.3" width="2" height="66.4"/>
<path d="M234.8,53.9c0-2.5,2-4.4,4.4-4.4v-2c-3.6,0-6.4,2.9-6.4,6.4H234.8z"/>
<rect x="232.8" y="53.9" width="2" height="201.6"/>
<path d="M239.2,259.9c-2.5,0-4.4-2-4.4-4.4h-2c0,3.6,2.9,6.4,6.4,6.4V259.9z"/>
<rect x="239.2" y="259.9" width="294.2" height="2"/>
<path d="M537.9,255.4c0,2.5-2,4.4-4.4,4.4v2c3.6,0,6.4-2.9,6.4-6.4H537.9z"/>
<rect x="537.9" y="53.9" width="2" height="201.6"/>
<path d="M533.4,49.4c2.5,0,4.4,2,4.4,4.4h2c0-3.6-2.9-6.4-6.4-6.4V49.4z"/>
<rect x="239.2" y="47.4" width="294.2" height="2"/>
<path d="M10.3,319.3c0-2.5,2-4.4,4.4-4.4v-2c-3.6,0-6.4,2.9-6.4,6.4H10.3z"/>
<rect x="8.3" y="319.3" width="2" height="201.6"/>
<path d="M14.7,525.4c-2.5,0-4.4-2-4.4-4.4h-2c0,3.6,2.9,6.4,6.4,6.4V525.4z"/>
<rect x="14.7" y="525.4" width="294.2" height="2"/>
<path d="M313.4,520.9c0,2.5-2,4.4-4.4,4.4v2c3.6,0,6.4-2.9,6.4-6.4H313.4z"/>
<rect x="313.4" y="319.3" width="2" height="201.6"/>
<path d="M308.9,314.9c2.5,0,4.4,2,4.4,4.4h2c0-3.6-2.9-6.4-6.4-6.4V314.9z"/>
<rect x="14.7" y="312.9" width="294.2" height="2"/>
<path d="M74.7,160.6c-9.6,0-17.3,7.8-17.3,17.3h2c0-8.5,6.9-15.3,15.3-15.3V160.6z"/>
<rect x="74.7" y="160.6" width="68.5" height="2"/>
<path d="M160.5,177.9c0-9.6-7.8-17.3-17.3-17.3v2c8.5,0,15.3,6.9,15.3,15.3H160.5z"/>
<rect x="158.5" y="177.9" width="2" height="66.4"/>
<path d="M143.1,261.7c9.6,0,17.3-7.8,17.3-17.3h-2c0,8.5-6.9,15.3-15.3,15.3V261.7z"/>
<rect x="74.7" y="259.7" width="68.5" height="2"/>
<path d="M57.3,244.3c0,9.6,7.8,17.3,17.3,17.3v-2c-8.5,0-15.3-6.9-15.3-15.3H57.3z"/>
<rect x="57.3" y="177.9" width="2" height="66.4"/>
<path d="M398.8,478.1c0-8.5,6.9-15.3,15.3-15.3v-2c-9.6,0-17.3,7.8-17.3,17.3H398.8z"/>
<rect x="396.8" y="478.1" width="2" height="66.4"/>
<path d="M414.1,559.9c-8.5,0-15.3-6.9-15.3-15.3h-2c0,9.6,7.8,17.3,17.3,17.3V559.9z"/>
<rect x="414.1" y="559.9" width="68.5" height="2"/>
<path d="M497.9,544.5c0,8.5-6.9,15.3-15.3,15.3v2c9.6,0,17.3-7.8,17.3-17.3H497.9z"/>
<rect x="497.9" y="478.1" width="2" height="66.4"/>
<path d="M482.6,462.8c8.5,0,15.3,6.9,15.3,15.3h2c0-9.6-7.8-17.3-17.3-17.3V462.8z"/>
<rect x="414.1" y="460.8" width="68.5" height="2"/>
<path d="M397.7,329.9c0-8.5,6.9-15.3,15.3-15.3v-2c-9.6,0-17.3,7.8-17.3,17.3H397.7z"/>
<rect x="395.7" y="329.9" width="2" height="66.4"/>
<path d="M413,411.7c-8.5,0-15.3-6.9-15.3-15.3h-2c0,9.6,7.8,17.3,17.3,17.3V411.7z"/>
<rect x="413" y="411.7" width="68.5" height="2"/>
<path d="M496.8,396.3c0,8.5-6.9,15.3-15.3,15.3v2c9.6,0,17.3-7.8,17.3-17.3H496.8z"/>
<rect x="496.8" y="329.9" width="2" height="66.4"/>
<path d="M481.5,314.6c8.5,0,15.3,6.9,15.3,15.3h2c0-9.6-7.8-17.3-17.3-17.3V314.6z"/>
<rect x="413" y="312.6" width="68.5" height="2"/>
<path class="st1" d="M231.2,40.3h294.2c3,0,5.4,2.4,5.4,5.4v201.6c0,3-2.4,5.4-5.4,5.4H231.2c-3,0-5.4-2.4-5.4-5.4V45.7
	C225.8,42.7,228.2,40.3,231.2,40.3z"/>
<ellipse transform="matrix(1 -1.485133e-03 1.485133e-03 1 -0.1445 0.4073)" class="st2" cx="274.2" cy="97.5" rx="14" ry="14"/>
<defs>
	<filter id="Adobe_OpacityMaskFilter" filterUnits="userSpaceOnUse" x="266.6" y="89.3" width="15.2" height="25.7">
		<feColorMatrix  type="matrix" values="1 0 0 0 0  0 1 0 0 0  0 0 1 0 0  0 0 0 1 0"/>
	</filter>
</defs>
<mask maskUnits="userSpaceOnUse" x="266.6" y="89.3" width="15.2" height="25.7" id="mask0_935_15804_00000027588898779068552870000018313848578539452582_">
	
		<ellipse transform="matrix(1 -1.485106e-03 1.485106e-03 1 -0.1443 0.4073)" class="st3" cx="274.2" cy="97.4" rx="13.8" ry="13.8"/>
</mask>
<g class="st4">
	<path class="st5" d="M281,97c-1-0.9-1.7-2.1-1.8-3.5c-0.1-1.4,0.3-2.7,1.2-3.8l-12.4,0c0.9,1,1.3,2.4,1.2,3.8
		c-0.1,1.4-0.8,2.6-1.8,3.5c1,0.9,1.7,2.1,1.8,3.5c0.1,1.4-0.3,2.7-1.2,3.8l12.4,0c-0.9-1-1.3-2.4-1.2-3.8
		C279.3,99.2,280,97.9,281,97z"/>
	<path class="st6" d="M271.5,104.3l5.3,0l0,10.2l-5.3,0L271.5,104.3z"/>
	<path d="M274.9,114.5l0,0.5l1,0l0-0.5L274.9,114.5z M275.9,105.7c0-0.3-0.2-0.5-0.5-0.5s-0.5,0.2-0.5,0.5L275.9,105.7z
		 M275.9,114.5l0-8.8l-1,0l0,8.8L275.9,114.5z"/>
	<ellipse transform="matrix(1 -1.485052e-03 1.485052e-03 1 -0.1438 0.4036)" cx="271.7" cy="97" rx="0.4" ry="0.4"/>
	<ellipse transform="matrix(1 -1.485171e-03 1.485171e-03 1 -0.1438 0.411)" cx="276.7" cy="97" rx="0.4" ry="0.4"/>
	<path class="st7" d="M273,98.3c0.1,0.2,0.4,0.5,1.1,0.6c0.6,0.1,1.1-0.4,1.3-0.6"/>
</g>
<path class="st8" d="M362.8,61.1h11.1c1,0,1.8,0.8,1.8,1.8v0c0,1-0.8,1.8-1.8,1.8h-11.1c-1,0-1.8-0.8-1.8-1.8v0
	C360.9,61.9,361.7,61.1,362.8,61.1z"/>
<path class="st8" d="M383.1,61.1h11.1c1,0,1.8,0.8,1.8,1.8v0c0,1-0.8,1.8-1.8,1.8h-11.1c-1,0-1.8-0.8-1.8-1.8v0
	C381.2,61.9,382,61.1,383.1,61.1z"/>
<path class="st9" d="M264.7,137h60.8c2.5,0,4.5,2,4.5,4.5v72.1c0,2.5-2,4.5-4.5,4.5h-60.8c-2.5,0-4.5-2-4.5-4.5v-72.1
	C260.2,139,262.2,137,264.7,137z"/>
<path class="st10" d="M308.2,202.3h12c1.7,0,3,1.3,3,3l0,0c0,1.7-1.3,3-3,3h-12c-1.7,0-3-1.3-3-3l0,0
	C305.2,203.7,306.6,202.3,308.2,202.3z"/>
<path class="st11" d="M268.9,188.6h52.3c1.1,0,2,0.9,2,2l0,0c0,1.1-0.9,2-2,2h-52.3c-1.1,0-2-0.9-2-2l0,0
	C266.9,189.5,267.8,188.6,268.9,188.6z"/>
<path class="st12" d="M270.4,203.3c0.2-0.4,0.8-0.4,1,0l0.6,1.1c0.1,0.2,0.2,0.3,0.4,0.3l1.3,0.3c0.5,0.1,0.6,0.6,0.3,1l-0.9,0.9
	c-0.1,0.1-0.2,0.3-0.2,0.5l0.1,1.3c0.1,0.5-0.4,0.8-0.8,0.6l-1.2-0.5c-0.2-0.1-0.3-0.1-0.5,0l-1.2,0.5c-0.4,0.2-0.9-0.2-0.8-0.6
	l0.1-1.3c0-0.2,0-0.3-0.2-0.5l-0.9-0.9c-0.3-0.3-0.1-0.9,0.3-1l1.3-0.3c0.2,0,0.3-0.1,0.4-0.3L270.4,203.3z"/>
<path class="st13" d="M260.2,141.5c0-2.5,2-4.5,4.5-4.5h60.8c2.5,0,4.5,2,4.5,4.5v38.3h-69.8V141.5z"/>
<path class="st14" d="M348,137h60.8c2.5,0,4.5,2,4.5,4.5v72.1c0,2.5-2,4.5-4.5,4.5H348c-2.5,0-4.5-2-4.5-4.5v-72.1
	C343.5,139,345.5,137,348,137z"/>
<path class="st10" d="M391.6,202.3h12c1.7,0,3,1.3,3,3l0,0c0,1.7-1.3,3-3,3h-12c-1.7,0-3-1.3-3-3l0,0
	C388.6,203.7,389.9,202.3,391.6,202.3z"/>
<path class="st11" d="M352.3,188.6h52.3c1.1,0,2,0.9,2,2l0,0c0,1.1-0.9,2-2,2h-52.3c-1.1,0-2-0.9-2-2l0,0
	C350.3,189.5,351.2,188.6,352.3,188.6z"/>
<path class="st15" d="M343.5,141.5c0-2.5,2-4.5,4.5-4.5h60.8c2.5,0,4.5,2,4.5,4.5v38.3h-69.8V141.5z"/>
<path class="st12" d="M353.8,203.3c0.2-0.4,0.8-0.4,1,0l0.6,1.1c0.1,0.2,0.2,0.3,0.4,0.3l1.3,0.3c0.5,0.1,0.6,0.6,0.3,1l-0.9,0.9
	c-0.1,0.1-0.2,0.3-0.2,0.5l0.1,1.3c0.1,0.5-0.4,0.8-0.8,0.6l-1.2-0.5c-0.2-0.1-0.3-0.1-0.5,0l-1.2,0.5c-0.4,0.2-0.9-0.2-0.8-0.6
	l0.1-1.3c0-0.2,0-0.3-0.2-0.5l-0.9-0.9c-0.3-0.3-0.1-0.9,0.3-1l1.3-0.3c0.2,0,0.3-0.1,0.4-0.3L353.8,203.3z"/>
<path class="st14" d="M431.4,137h60.8c2.5,0,4.5,2,4.5,4.5v72.1c0,2.5-2,4.5-4.5,4.5h-60.8c-2.5,0-4.5-2-4.5-4.5v-72.1
	C426.9,139,428.9,137,431.4,137z"/>
<path class="st10" d="M474.9,202.3h12c1.7,0,3,1.3,3,3l0,0c0,1.7-1.3,3-3,3h-12c-1.7,0-3-1.3-3-3l0,0
	C471.9,203.7,473.3,202.3,474.9,202.3z"/>
<path class="st11" d="M436.1,188h52.3c1.1,0,2,0.9,2,2l0,0c0,1.1-0.9,2-2,2h-52.3c-1.1,0-2-0.9-2-2l0,0
	C434.1,188.9,435,188,436.1,188z"/>
<path class="st15" d="M426.9,141.5c0-2.5,2-4.5,4.5-4.5h60.8c2.5,0,4.5,2,4.5,4.5v38.3h-69.8V141.5z"/>
<path class="st12" d="M437.2,203.3c0.2-0.4,0.8-0.4,1,0l0.6,1.1c0.1,0.2,0.2,0.3,0.4,0.3l1.3,0.3c0.5,0.1,0.6,0.6,0.3,1l-0.9,0.9
	c-0.1,0.1-0.2,0.3-0.2,0.5l0.1,1.3c0.1,0.5-0.4,0.8-0.8,0.6l-1.2-0.5c-0.2-0.1-0.3-0.1-0.5,0l-1.2,0.5c-0.4,0.2-0.9-0.2-0.8-0.6
	l0.1-1.3c0-0.2,0-0.3-0.2-0.5l-0.9-0.9c-0.3-0.3-0.1-0.9,0.3-1l1.3-0.3c0.2,0,0.3-0.1,0.4-0.3L437.2,203.3z"/>
<path d="M119.3,551.3c0.3-0.2,0.4-0.6,0.2-0.9c-0.2-0.3-0.6-0.4-0.9-0.2L119.3,551.3z M88.1,539.9c-0.4-0.1-0.7,0.1-0.8,0.5
	l-1.6,5.9c-0.1,0.4,0.1,0.7,0.5,0.8c0.4,0.1,0.7-0.1,0.8-0.5l1.4-5.2l5.2,1.4c0.4,0.1,0.7-0.1,0.8-0.5c0.1-0.4-0.1-0.7-0.5-0.8
	L88.1,539.9z M117.5,550.8c-0.3,0.2-0.4,0.6-0.3,0.9c0.2,0.3,0.6,0.4,0.9,0.3L117.5,550.8z M115.7,553.2c0.3-0.1,0.5-0.5,0.4-0.9
	c-0.1-0.3-0.5-0.5-0.9-0.4L115.7,553.2z M112.7,552.9c-0.4,0.1-0.6,0.5-0.5,0.8c0.1,0.4,0.5,0.6,0.8,0.5L112.7,552.9z M110.4,554.8
	c0.4-0.1,0.6-0.4,0.6-0.8c-0.1-0.4-0.4-0.6-0.8-0.6L110.4,554.8z M107.7,553.7c-0.4,0-0.7,0.3-0.7,0.7c0,0.4,0.3,0.7,0.7,0.7
	L107.7,553.7z M104.9,555c0.4,0,0.7-0.2,0.8-0.6c0-0.4-0.2-0.7-0.6-0.8L104.9,555z M102.6,553.1c-0.4-0.1-0.7,0.1-0.8,0.5
	c-0.1,0.4,0.1,0.7,0.5,0.8L102.6,553.1z M99.6,553.4c0.3,0.2,0.7,0,0.9-0.3c0.2-0.3,0-0.7-0.3-0.9L99.6,553.4z M97.9,550.9
	c-0.3-0.2-0.7-0.1-0.9,0.2c-0.2,0.3-0.1,0.7,0.2,0.9L97.9,550.9z M95,550.4c0.3,0.2,0.7,0.2,1-0.1c0.2-0.3,0.2-0.7-0.1-1L95,550.4z
	 M93.9,547.6c-0.3-0.3-0.7-0.3-1,0c-0.3,0.3-0.3,0.7,0,1L93.9,547.6z M91.1,546.5c0.2,0.3,0.7,0.3,1,0.1c0.3-0.2,0.3-0.7,0.1-1
	L91.1,546.5z M90.6,543.6c-0.2-0.3-0.6-0.4-0.9-0.2c-0.3,0.2-0.4,0.6-0.2,0.9L90.6,543.6z M88,542.1c0.2,0.3,0.6,0.4,0.9,0.2
	c0.3-0.2,0.4-0.6,0.2-0.9L88,542.1z M118.6,550.2c-0.3,0.2-0.7,0.4-1.1,0.7l0.7,1.2c0.4-0.2,0.8-0.5,1.2-0.7L118.6,550.2z
	 M115.2,552c-0.8,0.3-1.6,0.6-2.4,0.9l0.4,1.3c0.9-0.3,1.8-0.6,2.6-1L115.2,552z M110.2,553.5c-0.8,0.1-1.7,0.2-2.6,0.2l0,1.4
	c0.9,0,1.9-0.1,2.8-0.3L110.2,553.5z M105.1,553.6c-0.8-0.1-1.7-0.3-2.5-0.5l-0.4,1.3c0.9,0.3,1.8,0.5,2.7,0.6L105.1,553.6z
	 M100.2,552.2c-0.7-0.3-1.5-0.8-2.3-1.3l-0.7,1.1c0.8,0.5,1.6,1,2.4,1.3L100.2,552.2z M95.8,549.4c-0.6-0.5-1.3-1.1-1.9-1.8l-1,0.9
	c0.7,0.7,1.3,1.3,2,1.9L95.8,549.4z M92.2,545.7c-0.5-0.7-1.1-1.4-1.6-2.1l-1.1,0.8c0.5,0.8,1.1,1.5,1.7,2.2L92.2,545.7z
	 M89.2,541.4c-0.2-0.4-0.5-0.8-0.7-1.1l-1.2,0.7c0.2,0.4,0.5,0.8,0.7,1.2L89.2,541.4z"/>
<path d="M448.8,9c-0.4,0.1-0.5,0.5-0.4,0.9c0.1,0.4,0.5,0.5,0.9,0.4L448.8,9z M475,26c0.3,0.2,0.7,0.2,0.9-0.1l3.7-4.9
	c0.2-0.3,0.2-0.7-0.1-0.9c-0.3-0.2-0.7-0.2-0.9,0.1l-3.3,4.3l-4.3-3.3c-0.3-0.2-0.7-0.2-0.9,0.1c-0.2,0.3-0.2,0.7,0.1,0.9L475,26z
	 M450.4,9.9c0.4-0.1,0.6-0.5,0.5-0.8c-0.1-0.4-0.5-0.6-0.8-0.5L450.4,9.9z M452.6,8c-0.4,0.1-0.6,0.4-0.5,0.8
	c0.1,0.4,0.4,0.6,0.8,0.5L452.6,8z M455.4,8.9c0.4,0,0.6-0.4,0.6-0.8c0-0.4-0.4-0.6-0.8-0.6L455.4,8.9z M458,7.3
	c-0.4,0-0.7,0.3-0.7,0.7c0,0.4,0.3,0.7,0.7,0.7L458,7.3z M460.5,8.8c0.4,0,0.7-0.2,0.7-0.6c0-0.4-0.2-0.7-0.6-0.7L460.5,8.8z
	 M463.3,7.9c-0.4-0.1-0.7,0.1-0.8,0.5c-0.1,0.4,0.1,0.7,0.5,0.8L463.3,7.9z M465.3,10c0.3,0.2,0.7,0,0.9-0.3c0.2-0.3,0-0.7-0.3-0.9
	L465.3,10z M468.3,10.2c-0.3-0.2-0.7-0.1-0.9,0.2c-0.2,0.3-0.1,0.7,0.2,0.9L468.3,10.2z M469.4,12.9c0.3,0.3,0.7,0.3,1,0
	c0.3-0.3,0.3-0.7,0-1L469.4,12.9z M472.1,14c-0.2-0.3-0.6-0.4-0.9-0.2c-0.3,0.2-0.4,0.6-0.2,0.9L472.1,14z M472.3,17
	c0.2,0.3,0.6,0.5,0.9,0.3c0.3-0.2,0.5-0.6,0.3-0.9L472.3,17z M474.6,18.8c-0.1-0.4-0.5-0.5-0.9-0.4c-0.4,0.1-0.5,0.5-0.4,0.9
	L474.6,18.8z M474,21.7c0.1,0.4,0.5,0.6,0.8,0.5c0.4-0.1,0.6-0.5,0.5-0.8L474,21.7z M475.9,24c-0.1-0.4-0.4-0.6-0.8-0.6
	c-0.4,0.1-0.6,0.4-0.6,0.8L475.9,24z M449.2,10.3c0.4-0.1,0.8-0.3,1.2-0.4L450,8.6c-0.4,0.1-0.9,0.3-1.3,0.4L449.2,10.3z M452.9,9.3
	c0.8-0.2,1.7-0.3,2.5-0.4l-0.2-1.3c-0.9,0.1-1.8,0.3-2.6,0.4L452.9,9.3z M458,8.7c0.8,0,1.7,0,2.5,0.1l0.1-1.3
	c-0.9-0.1-1.8-0.1-2.7-0.1L458,8.7z M463,9.2c0.8,0.2,1.6,0.5,2.4,0.8l0.6-1.2c-0.8-0.4-1.7-0.7-2.6-0.9L463,9.2z M467.5,11.3
	c0.7,0.5,1.3,1,1.9,1.6l1-1c-0.7-0.7-1.4-1.3-2.1-1.8L467.5,11.3z M471,14.8c0.5,0.7,0.9,1.4,1.3,2.2l1.2-0.6
	c-0.4-0.8-0.9-1.6-1.4-2.3L471,14.8z M473.3,19.3c0.3,0.8,0.5,1.6,0.7,2.4l1.3-0.3c-0.2-0.9-0.5-1.8-0.8-2.6L473.3,19.3z
	 M474.6,24.2c0.1,0.4,0.1,0.8,0.2,1.3l1.3-0.2c-0.1-0.5-0.1-0.9-0.2-1.3L474.6,24.2z"/>
<path class="st16" d="M6.7,305.7h294.2c3,0,5.4,2.4,5.4,5.4v201.6c0,3-2.4,5.4-5.4,5.4H6.7c-3,0-5.4-2.4-5.4-5.4V311.2
	C1.3,308.2,3.7,305.7,6.7,305.7z"/>
<path class="st17" d="M28,337.5"/>
<path class="st17" d="M28,342.5"/>
<path class="st17" d="M28,347.5"/>
<path class="st18" d="M1,310.7c0-3,2.4-5.4,5.4-5.4h294.1c3,0,5.4,2.4,5.4,5.4v18.6H1V310.7z"/>
<circle class="st12" cx="23.5" cy="317.1" r="2.8"/>
<circle class="st19" cx="14.8" cy="317.1" r="2.8"/>
<circle class="st20" cx="31.8" cy="317.1" r="2.8"/>
<path class="st1" d="M226,45.7c0-3,2.4-5.4,5.4-5.4h294.1c3,0,5.4,2.4,5.4,5.4v18.6H226V45.7z"/>
<circle class="st12" cx="248.5" cy="52.1" r="2.8"/>
<circle class="st19" cx="239.8" cy="52.1" r="2.8"/>
<circle class="st20" cx="256.8" cy="52.1" r="2.8"/>
<path class="st21" d="M66.7,153.5h68.5c9,0,16.3,7.3,16.3,16.3v66.4c0,9-7.3,16.3-16.3,16.3H66.7c-9,0-16.3-7.3-16.3-16.3v-66.4
	C50.3,160.8,57.6,153.5,66.7,153.5z"/>
<path class="st22" d="M406.1,453.7h68.5c9,0,16.3,7.3,16.3,16.3v66.4c0,9-7.3,16.3-16.3,16.3h-68.5c-9,0-16.3-7.3-16.3-16.3V470
	C389.8,461,397.1,453.7,406.1,453.7z"/>
<path class="st23" d="M66.7,12.9h68.5c9,0,16.3,7.3,16.3,16.3v66.4c0,9-7.3,16.3-16.3,16.3H66.7c-9,0-16.3-7.3-16.3-16.3V29.2
	C50.3,20.2,57.6,12.9,66.7,12.9z"/>
<path d="M406.3,309.4h71.1c8.3,0,15,6.7,15,15v69.1c0,8.3-6.7,15-15,15h-71.1c-8.3,0-15-6.7-15-15v-69.1
	C391.3,316.1,398,309.4,406.3,309.4z"/>
<path class="st24" d="M405,305.5h68.5c9,0,16.3,7.3,16.3,16.3v66.4c0,9-7.3,16.3-16.3,16.3H405c-9,0-16.3-7.3-16.3-16.3v-66.4
	C388.7,312.8,396,305.5,405,305.5z"/>
<g>
	<path d="M344.4,11.2l3.7-6.4h1.9l-4.8,8.3v8.3h-1.7v-8.3l-4.8-8.3h1.9L344.4,11.2z"/>
	<path d="M354.3,10.6c1.5,0,2.7,0.5,3.8,1.6c1.1,1.1,1.6,2.4,1.6,3.9c0,1.5-0.5,2.9-1.6,4c-1.1,1.1-2.3,1.7-3.8,1.7
		c-1.5,0-2.8-0.6-3.8-1.7c-1.1-1.1-1.6-2.4-1.6-4c0-1.5,0.5-2.8,1.6-3.9C351.5,11.1,352.8,10.6,354.3,10.6z M351.6,18.8
		c0.7,0.8,1.6,1.2,2.7,1.2s1.9-0.4,2.7-1.2s1.1-1.7,1.1-2.8c0-1.1-0.4-2-1.1-2.7s-1.6-1.1-2.7-1.1s-1.9,0.4-2.7,1.1
		s-1.1,1.6-1.1,2.7C350.5,17.1,350.9,18,351.6,18.8z"/>
	<path d="M361.8,17.3v-6.5h1.6v6.5c0,0.9,0.3,1.6,0.8,2s1.2,0.7,2,0.7c0.8,0,1.5-0.3,2-0.8s0.8-1.2,0.8-2.2v-6.2h1.6v10.6h-1.6v-1.2
		c-0.7,1-1.7,1.5-3,1.5c-1.3,0-2.3-0.4-3.1-1.1C362.2,19.8,361.8,18.8,361.8,17.3z"/>
	<path d="M379.3,10.8h0.9v1.6h-0.8c-1.1,0-2,0.3-2.7,1s-1.1,1.5-1.1,2.7v5.3h-1.6V10.8h1.6v2.1C376.6,11.5,377.8,10.8,379.3,10.8z"
		/>
	<path d="M392.9,10.6c1.5,0,2.7,0.5,3.8,1.6c1,1,1.6,2.4,1.6,4s-0.5,2.9-1.5,4c-1,1-2.3,1.6-3.7,1.6c-0.9,0-1.7-0.2-2.4-0.6
		c-0.7-0.4-1.1-0.8-1.4-1.2v1.5h-1.6V4.8h1.6v7.4C390,11.1,391.2,10.6,392.9,10.6z M390.3,18.9c0.7,0.7,1.6,1.1,2.6,1.1
		c1,0,1.9-0.4,2.6-1.1s1.1-1.6,1.1-2.8s-0.4-2.1-1.1-2.8c-0.7-0.7-1.6-1.1-2.6-1.1c-1,0-1.9,0.3-2.6,1c-0.7,0.7-1.1,1.5-1.1,2.6v0.6
		C389.2,17.4,389.6,18.2,390.3,18.9z"/>
	<path d="M406,10.8h0.9v1.6h-0.8c-1.1,0-2,0.3-2.7,1s-1.1,1.5-1.1,2.7v5.3h-1.6V10.8h1.6v2.1C403.3,11.5,404.5,10.8,406,10.8z"/>
	<path d="M417.1,10.7h1.6v10.7h-1.6v-1.6c-0.2,0.4-0.7,0.8-1.4,1.2c-0.7,0.4-1.5,0.6-2.4,0.6c-1.5,0-2.7-0.5-3.8-1.5
		c-1-1-1.5-2.4-1.5-4c0-1.6,0.5-2.9,1.5-4s2.3-1.6,3.8-1.6c1.7,0,3,0.5,3.7,1.6V10.7z M413.4,20c1,0,1.9-0.4,2.6-1.1
		c0.7-0.7,1.1-1.6,1.1-2.5v-0.6c0-1-0.3-1.9-1-2.6c-0.7-0.7-1.6-1-2.7-1c-1.1,0-2,0.4-2.7,1.1c-0.7,0.7-1,1.7-1,2.8
		c0,1.2,0.4,2.1,1.1,2.8C411.5,19.6,412.4,20,413.4,20z"/>
	<path d="M423.6,21.4H422V10.8h1.6v1.4c0.7-1.1,1.8-1.7,3.2-1.7c1.2,0,2.2,0.4,2.9,1.1c0.7,0.7,1.1,1.7,1.1,2.9v6.9h-1.6v-6.5
		c0-1.9-0.9-2.8-2.7-2.8c-0.9,0-1.6,0.3-2.1,0.8c-0.5,0.5-0.8,1.2-0.8,2.1V21.4z"/>
	<path d="M442.1,4.8h1.6v16.6h-1.6v-1.6c-0.2,0.4-0.7,0.8-1.4,1.2c-0.7,0.4-1.5,0.6-2.4,0.6c-1.5,0-2.7-0.5-3.7-1.6
		c-1-1-1.5-2.4-1.5-4c0-1.6,0.5-3,1.6-4c1-1,2.3-1.6,3.9-1.6c1.7,0,2.9,0.5,3.6,1.5V4.8z M438.4,20c1,0,1.9-0.4,2.6-1.1
		s1.1-1.6,1.1-2.5v-0.6c0-1-0.4-1.9-1.1-2.6c-0.7-0.7-1.6-1-2.6-1c-1.1,0-1.9,0.4-2.6,1.1c-0.7,0.7-1,1.7-1,2.8
		c0,1.2,0.4,2.1,1.1,2.8C436.4,19.6,437.3,20,438.4,20z"/>
</g>
<g>
	<path d="M131.5,544.9l3.7-6.4h1.9l-4.8,8.3v8.3h-1.7v-8.3l-4.8-8.3h1.9L131.5,544.9z"/>
	<path d="M141.4,544.3c1.5,0,2.7,0.5,3.8,1.6c1.1,1.1,1.6,2.3,1.6,3.9c0,1.5-0.5,2.9-1.6,4c-1.1,1.1-2.3,1.7-3.8,1.7
		c-1.5,0-2.8-0.6-3.8-1.7c-1.1-1.1-1.6-2.4-1.6-4c0-1.5,0.5-2.8,1.6-3.9C138.7,544.8,139.9,544.3,141.4,544.3z M138.8,552.5
		c0.7,0.8,1.6,1.2,2.7,1.2c1,0,1.9-0.4,2.7-1.2c0.7-0.8,1.1-1.7,1.1-2.8c0-1.1-0.4-2-1.1-2.7c-0.7-0.7-1.6-1.1-2.7-1.1
		c-1,0-1.9,0.4-2.7,1.1c-0.7,0.7-1.1,1.6-1.1,2.7C137.7,550.8,138,551.7,138.8,552.5z"/>
	<path d="M149,551v-6.5h1.6v6.5c0,0.9,0.3,1.6,0.8,2c0.6,0.4,1.2,0.7,2,0.7c0.8,0,1.5-0.3,2-0.8c0.5-0.5,0.8-1.2,0.8-2.2v-6.2h1.6
		v10.6h-1.6v-1.2c-0.7,1-1.7,1.5-3,1.5c-1.3,0-2.3-0.4-3.1-1.1C149.4,553.5,149,552.5,149,551z"/>
	<path d="M166.5,544.5h0.9v1.6h-0.8c-1.1,0-2,0.3-2.7,1c-0.7,0.6-1.1,1.5-1.1,2.7v5.3h-1.6v-10.6h1.6v2.1
		C163.8,545.2,165,544.5,166.5,544.5z"/>
	<path d="M185.8,553.2l3.6-8.7h1.7l-4.4,10.6h-1.8l-2.6-6l-2.6,6h-1.8l-4.4-10.6h1.7l3.6,8.7l2.6-6.1l-1.1-2.6h1.7L185.8,553.2z"/>
	<path d="M197.2,553.7c1.4,0,2.4-0.6,3.2-1.8h1.7c-0.4,1-1,1.9-1.9,2.5s-1.8,1-2.9,1c-1.5,0-2.7-0.5-3.7-1.5c-1-1-1.5-2.3-1.5-3.9
		s0.5-2.9,1.5-4c1-1.1,2.2-1.6,3.6-1.6c1.5,0,2.8,0.6,3.8,1.7c1,1.1,1.5,2.5,1.5,4.1h-8.7c0,1.1,0.4,2,1.1,2.6
		C195.4,553.4,196.3,553.7,197.2,553.7z M199.3,546.7c-0.6-0.5-1.3-0.8-2.1-0.8c-0.8,0-1.5,0.3-2.1,0.8c-0.6,0.5-1,1.2-1.2,2h6.6
		C200.3,547.8,199.9,547.2,199.3,546.7z"/>
	<path d="M210.4,544.3c1.5,0,2.7,0.5,3.8,1.6c1,1,1.6,2.4,1.6,4c0,1.6-0.5,2.9-1.5,4c-1,1-2.3,1.6-3.7,1.6c-0.9,0-1.7-0.2-2.4-0.6
		c-0.7-0.4-1.1-0.8-1.4-1.2v1.5h-1.6v-16.6h1.6v7.4C207.5,544.8,208.7,544.3,210.4,544.3z M207.8,552.6c0.7,0.7,1.6,1.1,2.6,1.1
		c1,0,1.9-0.4,2.6-1.1s1.1-1.6,1.1-2.8c0-1.2-0.4-2.1-1.1-2.8s-1.6-1.1-2.6-1.1c-1,0-1.9,0.3-2.6,1c-0.7,0.7-1.1,1.5-1.1,2.6v0.6
		C206.7,551.1,207,551.9,207.8,552.6z"/>
	<path d="M221.7,553.9c0.6,0,1.1-0.2,1.5-0.5c0.3-0.3,0.5-0.8,0.5-1.2c0-0.2,0-0.3-0.1-0.4c-0.1-0.1-0.1-0.3-0.3-0.4
		c-0.1-0.1-0.3-0.2-0.3-0.3c-0.1-0.1-0.3-0.1-0.5-0.2s-0.4-0.1-0.5-0.2c-0.1,0-0.3-0.1-0.5-0.2c-0.3-0.1-0.4-0.1-0.5-0.1
		c-1-0.3-1.8-0.6-2.4-1.1c-0.6-0.5-0.9-1.1-0.9-2c0-0.9,0.4-1.6,1.1-2.2s1.6-0.9,2.7-0.9c1,0,1.7,0.3,2.4,0.8c0.6,0.5,1,1.2,1.2,2.1
		h-1.7c-0.1-0.4-0.3-0.7-0.7-1c-0.4-0.3-0.8-0.4-1.4-0.4c-0.5,0-1,0.1-1.4,0.4c-0.4,0.3-0.6,0.6-0.6,0.9c0,0.4,0.2,0.8,0.5,1.1
		c0.4,0.3,1.1,0.6,2.1,0.9c1,0.3,1.8,0.6,2.4,1.1s0.9,1.1,0.9,2c0,1-0.3,1.7-1,2.3c-0.7,0.6-1.6,0.9-2.6,0.9c-1,0-1.9-0.3-2.6-0.9
		c-0.7-0.6-1.2-1.3-1.4-2.3h1.8c0.2,0.6,0.5,1,0.8,1.3C220.5,553.8,221,553.9,221.7,553.9z"/>
	<path d="M230.1,544.5v10.6h-1.6v-9h-1v-1.6H230.1z M230,542c-0.2,0.2-0.5,0.4-0.9,0.4c-0.3,0-0.6-0.1-0.9-0.4
		c-0.2-0.2-0.4-0.5-0.4-0.9s0.1-0.6,0.4-0.9c0.2-0.2,0.5-0.4,0.9-0.4c0.3,0,0.6,0.1,0.9,0.4c0.2,0.2,0.4,0.5,0.4,0.9
		S230.3,541.8,230,542z"/>
	<path d="M236.4,552.2c0,0.4,0.1,0.7,0.3,0.9c0.2,0.2,0.5,0.4,0.9,0.4h1.3v1.6h-1.3c-0.7,0-1.4-0.3-2-0.8c-0.6-0.5-0.8-1.2-0.8-1.9
		v-6.3h-2.2v-1.6c1,0,1.8-0.3,2.4-1s1-1.5,1.1-2.5h1.7c-0.3,1.8-0.8,3-1.7,3.5h2.8v1.6h-2.5V552.2z"/>
	<path d="M245.5,553.7c1.4,0,2.4-0.6,3.2-1.8h1.7c-0.4,1-1,1.9-1.9,2.5s-1.8,1-2.9,1c-1.5,0-2.7-0.5-3.7-1.5c-1-1-1.5-2.3-1.5-3.9
		s0.5-2.9,1.5-4c1-1.1,2.2-1.6,3.6-1.6c1.5,0,2.8,0.6,3.8,1.7c1,1.1,1.5,2.5,1.5,4.1h-8.7c0,1.1,0.4,2,1.1,2.6
		C243.7,553.4,244.5,553.7,245.5,553.7z M247.5,546.7c-0.6-0.5-1.3-0.8-2.1-0.8c-0.8,0-1.5,0.3-2.1,0.8c-0.6,0.5-1,1.2-1.2,2h6.6
		C248.5,547.8,248.1,547.2,247.5,546.7z"/>
</g>
<g>
	<path d="M310.1,90.6l6.1,17.6h-4.9l-0.9-3h-6.3l-0.9,3h-4.9l6.1-17.6H310.1z M309.2,101l-2-6.9l-2,6.9H309.2z"/>
	<path d="M317.2,90.6h5.9l4.4,11l4.4-11h5.9v17.6h-4.4V97.3l-4.3,10.9H326l-4.3-10.9v10.9h-4.4V90.6z"/>
	<path d="M350.7,90.6l6.1,17.6h-4.9l-0.9-3h-6.3l-0.9,3h-4.9l6.1-17.6H350.7z M349.9,101l-2-6.9l-2,6.9H349.9z"/>
	<path d="M357.1,105l7.9-10.3h-7.8v-4.1h13.2v3.2l-8.1,10.3h8.2v4.1h-13.4V105z"/>
	<path d="M372.3,90.6h4.4v17.6h-4.4V90.6z"/>
	<path d="M379.3,90.6h4.4l6.8,10.1V90.6h4.4v17.6h-4.4l-6.8-10.1v10.1h-4.4V90.6z"/>
	<path d="M413.4,108.2c-1.6,0-8.1,0-9.7,0c-3.6,0-7.2-3.2-7.2-8.8s3.6-9.2,9.1-9.2c1.9,0,3.6,0.4,5.3,1.2l-1.1,4.1
		c-1.4-0.6-2.6-1-4-1c-2.9,0-4.6,1.8-4.6,4.9c0,3.2,2,4.9,4,4.9h3.9l-0.5-3h-5.1l0-3.5h8.1L413.4,108.2z"/>
	<path d="M420.6,90.6h4.4v17.6h-4.4V90.6z"/>
	<path d="M427.6,90.6h4.4l6.8,10.1V90.6h4.4v17.6h-4.4L432,98.1v10.1h-4.4V90.6z"/>
	<path d="M444.8,99.4c0-5.5,3.6-9.2,8.9-9.2c1.9,0,3.6,0.4,5.4,1.2l-1.1,4.1c-1.4-0.6-2.6-1-4.2-1c-2.5,0-4.2,1.9-4.2,4.9
		c0,3,1.7,4.9,4.2,4.9c1.6,0,2.8-0.4,4.2-1l1.1,4.1c-1.7,0.8-3.5,1.2-5.4,1.2C448.4,108.5,444.8,104.8,444.8,99.4z"/>
</g>
<path class="st25" d="M74,202.3c0-10.7,0-16.1,2.6-19.9c1.1-1.7,2.6-3.2,4.3-4.3c3.9-2.6,9.2-2.6,19.9-2.6c10.7,0,16.1,0,19.9,2.6
	c1.7,1.1,3.2,2.6,4.3,4.3c2.6,3.9,2.6,9.2,2.6,19.9c0,10.7,0,16.1-2.6,19.9c-1.1,1.7-2.6,3.2-4.3,4.3c-3.9,2.6-9.2,2.6-19.9,2.6
	c-10.7,0-16.1,0-19.9-2.6c-1.7-1.1-3.2-2.6-4.3-4.3C74,218.4,74,213.1,74,202.3z M114.8,202.3c0,7.7-6.2,13.9-13.9,13.9
	c-7.7,0-13.9-6.2-13.9-13.9c0-7.7,6.2-13.9,13.9-13.9C108.6,188.4,114.8,194.7,114.8,202.3z M100.9,211.5c5.1,0,9.2-4.1,9.2-9.2
	c0-5.1-4.1-9.2-9.2-9.2c-5.1,0-9.2,4.1-9.2,9.2C91.7,207.4,95.8,211.5,100.9,211.5z M115.3,191c1.8,0,3.3-1.5,3.3-3.3
	c0-1.8-1.5-3.3-3.3-3.3c-1.8,0-3.3,1.5-3.3,3.3C112.1,189.5,113.5,191,115.3,191z"/>
<path class="st26" d="M80.7,52.5c0-2.1,0.4-4.2,1.3-6.3c0.9-2.1,2.2-4,3.8-5.8c1.7-1.8,3.8-3.2,6.5-4.3c2.7-1.1,5.7-1.7,8.9-1.7
	c5.3,0,9.7,1.6,13.1,4.9c3.4,3.3,5.1,7.1,5.1,11.6c0,5.7-1.4,10.4-4.3,14.2c-2.9,3.7-6.6,5.6-11.2,5.6c-1.5,0-2.9-0.4-4.2-1.1
	c-1.3-0.7-2.2-1.6-2.8-2.6l-2,7.9c-0.2,0.6-0.4,1.3-0.7,1.9c-0.3,0.7-0.6,1.3-0.9,1.9c-0.3,0.6-0.6,1.2-1,1.7c-0.3,0.5-0.6,1-1,1.5
	c-0.3,0.5-0.6,0.9-0.8,1.2c-0.2,0.3-0.5,0.6-0.7,0.8l-0.3,0.4c-0.1,0.1-0.2,0.2-0.4,0.2c-0.2,0-0.3-0.1-0.3-0.3c0,0,0-0.3-0.1-0.7
	c-0.1-0.4-0.1-0.9-0.2-1.4c-0.1-0.5-0.1-1.1-0.2-1.9c-0.1-0.8-0.1-1.5-0.1-2.2c0-0.7,0.1-1.5,0.2-2.4c0.1-0.9,0.2-1.7,0.4-2.4
	c0.4-1.6,1.6-6.8,3.7-15.7c-0.3-0.5-0.5-1.2-0.7-1.9c-0.2-0.8-0.3-1.4-0.3-1.8l-0.1-0.8c0-2.1,0.5-3.9,1.6-5.3
	c1.1-1.4,2.4-2.1,3.9-2.1c1.2,0,2.2,0.4,2.9,1.2c0.7,0.8,1,1.8,1,3.1c0,0.8-0.1,1.7-0.4,2.8s-0.7,2.4-1.1,3.9
	c-0.5,1.5-0.8,2.6-1,3.5c-0.3,1.5,0,2.8,0.9,3.9c0.9,1.1,2.1,1.7,3.7,1.7c2.6,0,4.8-1.5,6.5-4.5c1.7-3,2.6-6.6,2.6-10.9
	c0-3.2-1.1-5.9-3.2-7.9c-2.1-2.1-5-3.1-8.8-3.1c-4.2,0-7.6,1.4-10.3,4.1c-2.6,2.7-3.9,6-3.9,9.7c0,2.2,0.6,4.1,1.9,5.7
	c0.4,0.5,0.6,1,0.4,1.6c-0.1,0.2-0.2,0.6-0.3,1.2c-0.1,0.6-0.2,1-0.3,1.2c-0.1,0.4-0.2,0.6-0.5,0.7c-0.3,0.1-0.6,0.1-0.9,0
	c-2-0.8-3.4-2.2-4.4-4.1C81.2,57.4,80.7,55.1,80.7,52.5z"/>
<path class="st26" d="M463.2,488.9c-2.8,0-5.3-0.9-7.4-2.5c-2.4-1.8-4.1-4.4-4.7-7.4c-0.2-0.7-0.2-1.5-0.2-2.3H443v21.7l0,11.9
	c0,3.2-2.1,5.9-4.9,6.8c-0.8,0.3-1.7,0.4-2.7,0.4c-1.2-0.1-2.3-0.4-3.3-1c-2.1-1.2-3.5-3.5-3.5-6.1c-0.1-4,3.2-7.3,7.2-7.3
	c0.8,0,1.5,0.1,2.3,0.4v-5.9v-2.1c-0.8-0.1-1.5-0.2-2.3-0.2c-4.4,0-8.5,1.8-11.4,5.1c-2.2,2.5-3.5,5.7-3.8,9
	c-0.3,4.4,1.3,8.5,4.4,11.6c0.5,0.4,0.9,0.9,1.4,1.3c2.7,2,5.9,3.2,9.3,3.2c0.8,0,1.5-0.1,2.3-0.2c3.2-0.5,6.1-1.9,8.5-4.2
	c2.9-2.8,4.4-6.6,4.5-10.6l0-17.7c1.4,1.1,2.9,1.9,4.5,2.6c2.5,1.1,5.1,1.6,7.8,1.6v-5.8L463.2,488.9
	C463.2,488.9,463.2,488.9,463.2,488.9z"/>
<path class="st27" d="M439.6,372.8l-10.3-0.2c-3.3-0.1-6.7,0.1-10-0.6c-5-1-5.3-6.1-5.7-10.4c-0.5-6-0.3-12.2,0.6-18.1
	c0.5-3.4,2.7-5.4,6-5.6c11.2-0.8,22.4-0.7,33.5-0.3c1.2,0,2.4,0.2,3.5,0.4c5.7,1,5.9,6.8,6.2,11.7c0.4,4.9,0.2,9.9-0.5,14.8
	c-0.6,4-1.7,7.4-6.2,7.8C451,372.6,445.4,372.9,439.6,372.8C439.7,372.8,439.6,372.8,439.6,372.8z M433.5,362.5
	c4.3-2.5,8.6-5,12.9-7.6c-4.3-2.5-8.6-5-12.9-7.6V362.5z"/>
<defs>
	
		<filter id="Adobe_OpacityMaskFilter_00000046312348129998121590000014011847987795219118_" filterUnits="userSpaceOnUse" x="15.9" y="345.6" width="275" height="160.7">
		<feColorMatrix  type="matrix" values="1 0 0 0 0  0 1 0 0 0  0 0 1 0 0  0 0 0 1 0"/>
	</filter>
</defs>
<mask maskUnits="userSpaceOnUse" x="15.9" y="345.6" width="275" height="160.7" id="mask0_2639_62257_00000063602648080736746720000008886193299204248759_">
	<path style="fill:#F1F0EE;filter:url(#Adobe_OpacityMaskFilter_00000046312348129998121590000014011847987795219118_);" d="
		M-40,273h393c14.7,0,26.7,12,26.7,26.7v262c0,14.7-12,26.7-26.7,26.7H-40c-14.7,0-26.7-12-26.7-26.7v-262
		C-66.7,284.9-54.7,273-40,273z"/>
</mask>
<g class="st29">
	<line class="st30" x1="202.4" y1="429.4" x2="265.8" y2="429.4"/>
	<circle class="st22" cx="191.5" cy="429.4" r="5.8"/>
	<line class="st30" x1="202.4" y1="452" x2="248.3" y2="452"/>
	<circle class="st31" cx="191.5" cy="451.9" r="5.8"/>
	<path class="st32" d="M193.7,353.9h70.9c1.8,0,3.3,1.5,3.3,3.3v13.4c0,1.8-1.5,3.3-3.3,3.3h-70.9c-1.8,0-3.3-1.5-3.3-3.3v-13.4
		C190.3,355.4,191.8,353.9,193.7,353.9z"/>
	<path class="st31" d="M188.4,349.3h68.9c1.9,0,3.5,1.6,3.5,3.5V365c0,1.9-1.6,3.5-3.5,3.5h-68.9c-1.9,0-3.5-1.6-3.5-3.5v-12.2
		C184.9,350.9,186.5,349.3,188.4,349.3z"/>
	<path class="st33" d="M195,479.1h64.2c3.9,0,7.1,3.2,7.1,7.1l0,0c0,3.9-3.2,7.1-7.1,7.1H195c-3.9,0-7.1-3.2-7.1-7.1l0,0
		C187.9,482.3,191.1,479.1,195,479.1z"/>
	<path class="st31" d="M192.4,475.3h63.6c3.7,0,6.7,3,6.7,6.7l0,0c0,3.7-3,6.7-6.7,6.7h-63.6c-3.7,0-6.7-3-6.7-6.7l0,0
		C185.7,478.3,188.7,475.3,192.4,475.3z"/>
	<line class="st30" x1="185.7" y1="407.9" x2="289.7" y2="407.9"/>
	<line class="st30" x1="185.7" y1="388.6" x2="250.1" y2="388.6"/>
	<path class="st22" d="M91.9,346.6L91.9,346.6c-41.4,0-74.9,33.5-74.9,74.9v0c0,41.4,33.5,74.9,74.9,74.9l0,0
		c41.4,0,74.9-33.5,74.9-74.9v0C166.8,380.2,133.3,346.6,91.9,346.6z"/>
	<g>
		<defs>
			<path id="SVGID_1_" d="M91.9,347.9L91.9,347.9c-40.7,0-73.6,33-73.6,73.6v0c0,40.7,33,73.6,73.6,73.6l0,0
				c40.7,0,73.6-33,73.6-73.6v0C165.5,380.9,132.6,347.9,91.9,347.9z"/>
		</defs>
		<clipPath id="SVGID_00000136402920498871280410000008261450540362408114_">
			<use xlink:href="#SVGID_1_"  style="overflow:visible;"/>
		</clipPath>
		<g style="clip-path:url(#SVGID_00000136402920498871280410000008261450540362408114_);">
			<path class="st35" d="M99.5,503.1c-0.1,0-0.1,0-0.2,0c-0.3-0.1-0.5-0.3-0.6-0.5c-0.3-0.6-5.2-16.1-8.2-25.3
				c-0.1-0.3,0-0.6,0.1-0.9c0.2-0.3,0.4-0.4,0.7-0.4l33.9-2.9c0.5,0,0.9,0.3,1,0.7l4,12.7c0.1,0.5-0.1,1-0.5,1.2
				C103.5,501.8,100.3,503.1,99.5,503.1z M92.8,477.9c2.7,8.4,6.3,19.8,7.4,23c3.6-1.6,18.3-9.3,28-14.5l-3.5-11.2L92.8,477.9z"/>
			<path class="st36" d="M120.2,477.2l3.2,10.8"/>
			<path class="st35" d="M47.9,506.3c-0.5,0-1-0.4-1-0.9c-0.2-2.1-3.9-52-1.4-61.6c2.5-9.9,13.8-35.8,35.9-36.1c0.2,0,0.3,0,0.4,0.1
				c0.7,0.3,18.4,8.3,25.4,19.7c11.8,19.1,13.5,46.8,13.5,47.1c0,0.5-0.4,1-0.9,1.1l-9.3,0.7c0.4,4.9,1.6,22.7,1.3,25
				c-0.2,1.2-0.3,2.4-32.5,3.8C63.7,505.9,48.1,506.3,47.9,506.3C47.9,506.3,47.9,506.3,47.9,506.3z M81.2,409.6
				c-20.7,0.5-31.4,25.2-33.8,34.6c-2.2,8.6,0.9,52.9,1.4,60c22.2-0.6,56.8-2.1,60.9-3.6c0.1-2.9-0.8-16.4-1.4-25.2
				c0-0.3,0.1-0.5,0.2-0.7s0.4-0.3,0.7-0.3l9.3-0.7c-0.4-5.1-2.8-28.6-13.1-45.2C99.2,418.2,83.1,410.6,81.2,409.6z"/>
			<path class="st37" d="M129.3,486.9l-4-12.7l-17,1.4c0-0.1,0-0.2,0-0.2l10.3-0.8c0,0-1.5-27.5-13.3-46.7
				c-6.9-11.3-25-19.3-25-19.3c-4.8,0.1-9.1,1.4-12.8,3.5c-5.1,1.5-28.4,10-39.8,44.2c-12.6,37.6,7,44,18.9,45.5
				c0.1,2.1,0.2,3.4,0.2,3.4s62.5-1.7,62.8-4.1c0.1-0.5,0.1-2,0-3.9C118.3,492.8,129.3,486.9,129.3,486.9z"/>
			<path class="st36" d="M103.9,442.7l3.2,32.7"/>
			<path class="st38" d="M147.7,475.1c1.3-0.1,2.5-0.4,3.7-0.9c2.1-0.8,3.2-2.4,2.9-3.8c-0.3-1.4-5.1,0.5-6,1.5
				S146.2,474.4,147.7,475.1z"/>
			<path class="st39" d="M92.8,476.4l30-2.1"/>
			<path class="st40" d="M124.2,475.5l33.5-3.9c0.4,0,0.8-0.2,1.2-0.5c0.3-0.3,0.6-0.6,0.7-1l11.8-34c0.1-0.3,0.2-0.7,0.1-1.1
				c-0.1-0.4-0.2-0.7-0.4-1c-0.2-0.3-0.5-0.5-0.8-0.7c-0.3-0.2-0.7-0.2-1.1-0.2l-34.1,1c-0.5,0-0.9,0.2-1.3,0.5
				c-0.4,0.3-0.7,0.7-0.8,1.1l-11.2,36.9c-0.1,0.4-0.1,0.7,0,1.1c0.1,0.4,0.2,0.7,0.5,1c0.2,0.3,0.6,0.5,0.9,0.6
				C123.4,475.5,123.8,475.5,124.2,475.5z"/>
			<path class="st36" d="M153.4,455.3c-1.2,2-3.6,2.9-5.3,1.9c-1.7-1-2.2-3.5-1-5.5c1.2-2,3.5-2.9,5.3-1.9
				C154.2,450.8,154.6,453.3,153.4,455.3z"/>
			<path class="st36" d="M159,471.5l-37,4.3l-29.6,1.9"/>
			<path class="st41" d="M150.4,463.6c-1.9-0.6-2,2.3-2,2.3v0c-0.4-1.2-1.1-1.3-1.7-1.2c-1.3,0.3-1.9,2.5-1.9,2.5l-0.1,0.2
				c0-0.2-0.1-0.3-0.2-0.5c-0.1-0.2-0.2-0.3-0.4-0.4c-0.1-0.1-0.3-0.2-0.5-0.2c-0.2,0-0.3,0-0.5,0c-2.3,0.2-4.9,7.6-4.9,7.6l0.1-0.5
				l-12.5,1.8c-0.2,0.9,0.7,3,1.1,3.6c0.2,0.3,2.8-0.5,2.9-0.3c1,1.7,3.9,2,5.5,1.9c2.1-0.2,4.8-2.2,6-3.2c0.9,0.2,1.8,0,2.7-0.4
				c0.4-0.2,0.8-0.5,1.1-0.8c3.3-0.7,5.6-3.6,5.9-5C151.3,471.1,152.4,464.2,150.4,463.6z"/>
			<path class="st36" d="M138.5,473.6l-12.7,1.6l1.3,3.7l2.8-0.5c0,0,0.8,0.6,1,0.8c1.3,1.1,3.5,1.3,4.8,1.2
				c2.4-0.2,5.6-2.8,6.4-3.6c0.8-0.8,1.8-3.5,1.8-3.5c1.2-4.3,1.8-7.3-0.6-7.1c-2.3,0.2-4.9,7.6-4.9,7.6"/>
			<path class="st36" d="M144.9,467.2c0,0,0.6-2.2,1.9-2.5c0.9-0.2,2.5,0.2,1.6,5.5c-0.9,5.2-4,6.8-4,6.8c-0.8,0.4-1.8,0.5-2.7,0.4"
				/>
			<path class="st36" d="M148.4,465.9c0,0,0.1-2.9,2-2.3c1.9,0.6,0.9,7.5,0.9,7.5c-0.3,1.4-2.6,4.4-5.9,5"/>
			<path class="st38" d="M108.4,459.2c0,0,4.6-1.5,6.2-0.5c1.6,1,0.1,2.5-1.7,2.9C111.2,462.1,107.8,460.4,108.4,459.2z"/>
			<path class="st41" d="M116.9,462.5c-3.1-2.8-11.1-6.8-15.7-5c-4.7,1.7-19,8.2-20.3,10.4c-1.3,2.2-0.9,12.7,5.5,10.9
				c6.4-1.8,13.9-9.2,15-9.1c1.1,0.1,9.2,0.8,9.3-1.7h0c1.8,0.9,4.2,0.8,4.7,0c0.1-0.2,0.2-0.3,0.2-0.5l0,0c1.2,0.4,2-0.1,2.1-1
				l0.1,0C118.9,466.1,120.1,465.2,116.9,462.5z"/>
			<path class="st36" d="M100,465c0,0,10.6,0.1,10.8,2.8c0.3,2.7-8.2,1.9-9.3,1.8c-1.1-0.1-8.7,7.2-15,9.1
				c-6.4,1.8-6.8-8.7-5.5-10.9c1.3-2.2,15.6-8.6,20.3-10.4c4.7-1.7,12.6,2.3,15.7,5c3.1,2.8,1.9,3.6,1,4"/>
			<path class="st36" d="M101,462.3c0,0,6.1,0.3,10.6,2.2c4.5,1.9,4.5,2.6,4,3.5c-0.5,0.8-3,0.9-4.7,0"/>
			<path class="st36" d="M103.9,459c0,0,9.6,3.2,12.3,5c2.6,1.7,1.7,4.2-0.5,3.5"/>
			<path class="st36" d="M68.6,411.9c0,0-27.9,6-40.8,44.5c-13.2,39.5,9,44.6,20.6,45.7s42.6-18.4,42.6-18.4l-8-24.9l-37.6,7.9"/>
			<path class="st36" d="M77.7,462.5l6.7,22.3"/>
			<path class="st36" d="M51.7,465.4l1.8-19.3"/>
			<path class="st35" d="M70.3,367.2c-5.7,2.8-9.1,9.6-8.3,16.8c1,9.9,9.6,17.2,9.6,17.2l0.6-16.5l0.9-0.5L70.3,367.2z"/>
			<path class="st38" d="M68.1,387.2c1.2,0,2.4,0.4,3.3,1.1l0-3.4c0-5.5,3.9-9.9,8.7-9.9l7.2,0c4.8,0,8.7,4.4,8.7,9.9l0,11.2
				c0,5.5-3.9,9.9-8.7,9.9l-4.2,0l0,6c0,1.2-0.5,2.3-1.3,3.2c-0.8,0.8-2,1.3-3.2,1.3l-2.9,0c-1.2,0-2.3-0.5-3.2-1.3
				c-0.8-0.8-1.3-2-1.3-3.2l0-6.8v-0.4l0-6.8c0-0.1,0-0.3,0-0.4c-0.7,0.5-1.6,0.9-2.5,1c-0.9,0.1-1.8,0.1-2.7-0.2
				c-0.9-0.3-1.6-0.8-2.3-1.4c-0.6-0.6-1.1-1.4-1.4-2.3c-0.3-0.9-0.3-1.8-0.2-2.7c0.1-0.9,0.5-1.7,1-2.5c0.5-0.7,1.2-1.3,2-1.7
				C66.3,387.4,67.2,387.2,68.1,387.2z"/>
			<path class="st36" d="M70.9,393.6c0.1-0.5,0-1-0.2-1.4c-0.2-0.5-0.5-0.9-0.8-1.2c-0.4-0.3-0.8-0.6-1.3-0.7
				c-0.5-0.1-1-0.2-1.5-0.1"/>
			<path class="st35" d="M68.1,371.4c0.2-0.2,0.5-0.5,0.8-0.7l-0.9-1.9c2.8-2.2,6.3-3.2,9.8-2.9c18.4-6.4,25.2,11,18.7,15.7
				c-1.9,1.4-11.5,2.1-15.2-1.6c-0.3,1-0.7,2-1.2,2.9c-1.2,2.6-3.9,4.5-6.1,5.6l1.5,7.3c0,0,8.9-2.2,14.4-2.1c5.5,0,6.2,2.2,6.2,2.2
				s0,7.5-5.7,9.3c-4.8,1.6-7.1,0.6-7.1,0.6s-6-1.6-9-4.7c-1-1.1-1.9-2.3-2.5-3.6l-0.3-8.8c-0.2-0.2-0.4-0.3-0.6-0.4
				c-0.8-0.7-1.8-1.1-2.8-1.1c-1.3,0-2.6,0.5-3.7,1.3C62.9,385.4,62.7,376.8,68.1,371.4z"/>
			<path class="st36" d="M88.4,392.8l2.9-1.8l-2.5-4.3"/>
			<path class="st36" d="M80.6,386.1l2.8-1.1"/>
			<path class="st36" d="M92.5,385.2l2.7,0.4"/>
			<path class="st35" d="M81.9,388.6c0,0.3,0.1,0.5,0.2,0.7c0.1,0.2,0.3,0.4,0.6,0.5c0.2,0.1,0.5,0.1,0.7,0.1
				c0.2-0.1,0.5-0.2,0.7-0.4c0.2-0.2,0.3-0.4,0.4-0.7c0-0.2,0-0.5-0.1-0.7c-0.1-0.2-0.3-0.4-0.5-0.6c-0.2-0.1-0.5-0.2-0.7-0.2
				c-0.3,0-0.7,0.1-0.9,0.4C82,387.9,81.9,388.2,81.9,388.6z"/>
			<path class="st35" d="M93.8,389.3c-0.6,0-1.1-0.5-1.1-1.1c0-0.6,0.5-1.1,1.1-1.1c0.6,0,1.1,0.5,1.1,1.1
				C94.9,388.8,94.4,389.3,93.8,389.3z"/>
			<path class="st41" d="M91.5,396.8c0,0.7-0.3,1.3-0.7,1.8c-0.5,0.5-1.1,0.7-1.8,0.7c-0.7,0-1.3-0.3-1.8-0.7
				c-0.5-0.5-0.7-1.1-0.7-1.8L91.5,396.8z"/>
			<g>
				<path class="st37" d="M68.1,407.5l18.4-0.1c2.4,0,4.3,1.9,4.3,4.3l0,2.3c0,2.4-1.9,4.3-4.3,4.3l-18.4,0.1
					c-2.4,0-4.3-1.9-4.3-4.3l0-2.3C63.8,409.4,65.7,407.5,68.1,407.5z"/>
				<path class="st35" d="M68.1,419.3c-1.4,0-2.7-0.5-3.7-1.5c-1-1-1.6-2.3-1.6-3.7l0-2.3c0-1.4,0.5-2.7,1.5-3.7
					c1-1,2.3-1.6,3.7-1.6l18.4-0.1c0,0,0,0,0,0c2.9,0,5.3,2.3,5.3,5.2l0,2.3c0,1.4-0.5,2.7-1.5,3.7s-2.3,1.6-3.7,1.6L68.1,419.3
					C68.2,419.3,68.2,419.3,68.1,419.3z M86.5,408.3C86.5,408.3,86.5,408.3,86.5,408.3l-18.4,0.1c-0.9,0-1.7,0.4-2.3,1
					c-0.6,0.6-1,1.4-0.9,2.3l0,2.3c0,0.9,0.4,1.7,1,2.3c0.6,0.6,1.5,1,2.3,0.9l18.4-0.1c0.9,0,1.7-0.4,2.3-1s1-1.4,0.9-2.3l0-2.3
					C89.8,409.8,88.3,408.3,86.5,408.3z"/>
			</g>
			<path class="st37" d="M65,471.2c-0.4,0.2-0.7,0.4-0.9,0.7c-0.2,0.3-0.3,0.7-0.3,1.1c0,0.4,0.1,0.8,0.3,1.1
				c0.2,0.3,0.5,0.6,0.9,0.7c0.4,0.1,0.8,0.2,1.2,0.1c0.4-0.1,0.7-0.3,1-0.5c0.3-0.3,0.5-0.6,0.5-1c0.1-0.4,0-0.8-0.1-1.2
				c-0.1-0.2-0.2-0.5-0.4-0.6c-0.2-0.2-0.4-0.3-0.7-0.4c-0.2-0.1-0.5-0.1-0.8-0.1C65.6,471,65.3,471.1,65,471.2z"/>
			<path class="st37" d="M85.7,495.2c-0.4,0.2-0.7,0.4-0.9,0.7c-0.2,0.3-0.3,0.7-0.3,1.1c0,0.4,0.1,0.8,0.3,1.1
				c0.2,0.3,0.5,0.6,0.9,0.7c0.4,0.1,0.8,0.2,1.2,0.1c0.4-0.1,0.7-0.3,1-0.6c0.3-0.3,0.5-0.6,0.5-1c0.1-0.4,0-0.8-0.1-1.2
				c-0.2-0.5-0.6-0.9-1.1-1.1C86.7,495,86.2,495,85.7,495.2z"/>
			<path class="st37" d="M59.6,486.3c-0.4,0.2-0.7,0.4-0.9,0.7c-0.2,0.3-0.3,0.7-0.3,1.1c0,0.4,0.1,0.8,0.3,1.1
				c0.2,0.3,0.5,0.6,0.9,0.7c0.4,0.1,0.8,0.2,1.2,0.1c0.4-0.1,0.7-0.3,1-0.5c0.3-0.3,0.5-0.6,0.5-1c0.1-0.4,0-0.8-0.1-1.2
				c-0.1-0.2-0.2-0.5-0.4-0.6c-0.2-0.2-0.4-0.3-0.6-0.4c-0.2-0.1-0.5-0.1-0.8-0.1C60.1,486.1,59.9,486.2,59.6,486.3z"/>
			<path class="st37" d="M28.6,482c-0.4,0.2-0.7,0.4-0.9,0.7c-0.2,0.3-0.3,0.7-0.3,1.1c0,0.4,0.1,0.8,0.3,1.1
				c0.2,0.3,0.5,0.6,0.9,0.7c0.4,0.1,0.8,0.2,1.2,0.1c0.4-0.1,0.7-0.3,1-0.6c0.3-0.3,0.5-0.6,0.5-1c0.1-0.4,0-0.8-0.1-1.2
				c-0.2-0.5-0.6-0.9-1.1-1.1C29.6,481.8,29.1,481.8,28.6,482z"/>
			<path class="st37" d="M43.2,491.2c-0.4,0.2-0.7,0.4-0.9,0.7c-0.2,0.3-0.3,0.7-0.3,1.1c0,0.4,0.1,0.8,0.3,1.1
				c0.2,0.3,0.5,0.6,0.9,0.7c0.4,0.1,0.8,0.2,1.2,0.1c0.4-0.1,0.7-0.3,1-0.5c0.3-0.3,0.5-0.6,0.5-1c0.1-0.4,0-0.8-0.1-1.2
				c-0.1-0.2-0.2-0.5-0.4-0.6c-0.2-0.2-0.4-0.3-0.6-0.4c-0.2-0.1-0.5-0.2-0.8-0.1C43.7,491,43.5,491.1,43.2,491.2z"/>
			<path class="st37" d="M46.4,473.9c-0.4,0.2-0.7,0.4-0.9,0.7c-0.2,0.3-0.3,0.7-0.3,1.1c0,0.4,0.1,0.8,0.3,1.1s0.5,0.6,0.9,0.7
				c0.4,0.1,0.8,0.2,1.2,0.1c0.4-0.1,0.7-0.3,1-0.6c0.3-0.3,0.5-0.6,0.5-1c0.1-0.4,0-0.8-0.1-1.2c-0.2-0.5-0.6-0.9-1.1-1.1
				C47.4,473.7,46.9,473.7,46.4,473.9z"/>
			<path class="st37" d="M74.4,480c-0.4,0.2-0.7,0.4-0.9,0.7c-0.2,0.3-0.3,0.7-0.3,1.1c0,0.4,0.1,0.8,0.3,1.1
				c0.2,0.3,0.5,0.6,0.9,0.7c0.4,0.1,0.8,0.2,1.2,0.1c0.4-0.1,0.7-0.3,1-0.6c0.3-0.3,0.5-0.6,0.5-1c0.1-0.4,0-0.8-0.1-1.2
				c-0.2-0.5-0.6-0.9-1.1-1.1C75.4,479.8,74.8,479.8,74.4,480z"/>
			<path class="st37" d="M38.4,467.6c-0.4,0.2-0.7,0.4-0.9,0.7c-0.2,0.3-0.3,0.7-0.3,1.1c0,0.4,0.1,0.8,0.3,1.1
				c0.2,0.3,0.5,0.6,0.9,0.7c0.4,0.1,0.8,0.2,1.2,0.1c0.4-0.1,0.7-0.3,1-0.6c0.3-0.3,0.5-0.6,0.5-1c0.1-0.4,0-0.8-0.1-1.2
				c-0.1-0.2-0.2-0.5-0.4-0.6c-0.2-0.2-0.4-0.3-0.7-0.4c-0.2-0.1-0.5-0.1-0.8-0.1C38.9,467.5,38.6,467.5,38.4,467.6z"/>
			<path class="st37" d="M33.7,448.6c-0.4,0.2-0.7,0.4-0.9,0.7c-0.2,0.3-0.3,0.7-0.3,1.1c0,0.4,0.1,0.8,0.3,1.1
				c0.2,0.3,0.5,0.6,0.9,0.7c0.4,0.1,0.8,0.2,1.2,0.1c0.4-0.1,0.7-0.3,1-0.5c0.3-0.3,0.5-0.6,0.5-1c0.1-0.4,0-0.8-0.1-1.2
				c-0.1-0.2-0.2-0.5-0.4-0.6c-0.2-0.2-0.4-0.3-0.7-0.4c-0.2-0.1-0.5-0.2-0.8-0.1C34.2,448.5,34,448.5,33.7,448.6z"/>
			<path class="st37" d="M64.9,443.8c-0.4,0.2-0.7,0.4-0.9,0.7c-0.2,0.3-0.3,0.7-0.3,1.1c0,0.4,0.1,0.8,0.3,1.1
				c0.2,0.3,0.5,0.6,0.9,0.7c0.4,0.1,0.8,0.2,1.2,0.1c0.4-0.1,0.7-0.3,1-0.6c0.3-0.3,0.5-0.6,0.5-1c0.1-0.4,0-0.8-0.1-1.2
				c-0.1-0.2-0.2-0.5-0.4-0.6c-0.2-0.2-0.4-0.3-0.7-0.4c-0.2-0.1-0.5-0.1-0.8-0.1C65.4,443.7,65.2,443.7,64.9,443.8z"/>
			<path class="st37" d="M44.4,436c-0.4,0.2-0.7,0.4-0.9,0.7c-0.2,0.3-0.3,0.7-0.3,1.1c0,0.4,0.1,0.8,0.3,1.1
				c0.2,0.3,0.5,0.6,0.9,0.7c0.4,0.1,0.8,0.2,1.2,0.1c0.4-0.1,0.7-0.3,1-0.6c0.3-0.3,0.5-0.6,0.5-1c0.1-0.4,0-0.8-0.1-1.2
				c-0.1-0.2-0.3-0.5-0.4-0.6c-0.2-0.2-0.4-0.3-0.7-0.4c-0.2-0.1-0.5-0.1-0.8-0.1C44.9,435.8,44.6,435.9,44.4,436z"/>
			<path class="st37" d="M41.3,455.2c-0.4,0.2-0.7,0.4-0.9,0.7c-0.2,0.3-0.3,0.7-0.3,1.1c0,0.4,0.1,0.8,0.3,1.1s0.5,0.6,0.9,0.7
				s0.8,0.2,1.2,0.1c0.4-0.1,0.7-0.3,1-0.6c0.3-0.3,0.5-0.6,0.5-1c0.1-0.4,0-0.8-0.1-1.2c-0.2-0.5-0.6-0.9-1.1-1.1
				C42.3,455,41.7,455,41.3,455.2z"/>
			<path class="st37" d="M100.6,483c-0.4,0.2-0.7,0.4-0.9,0.7c-0.2,0.3-0.3,0.7-0.3,1.1c0,0.4,0.1,0.8,0.3,1.1
				c0.2,0.3,0.5,0.6,0.9,0.7c0.4,0.1,0.8,0.2,1.2,0.1c0.4-0.1,0.7-0.3,1-0.6c0.3-0.3,0.5-0.6,0.5-1c0.1-0.4,0-0.8-0.1-1.2
				c-0.2-0.5-0.6-0.9-1.1-1.1C101.6,482.7,101.1,482.7,100.6,483z"/>
			<path class="st37" d="M113,488.2c-0.4,0.2-0.7,0.4-0.9,0.7c-0.2,0.3-0.3,0.7-0.3,1.1c0,0.4,0.1,0.8,0.3,1.1
				c0.2,0.3,0.5,0.6,0.9,0.7c0.4,0.1,0.8,0.2,1.2,0.1c0.4-0.1,0.7-0.3,1-0.5c0.3-0.3,0.5-0.6,0.5-1c0.1-0.4,0-0.8-0.1-1.2
				c-0.2-0.5-0.6-0.9-1.1-1.1C114.1,487.9,113.5,487.9,113,488.2z"/>
			<path class="st37" d="M109.3,497.4c-0.3,0.2-0.6,0.3-1,0.3c-0.3,0-0.7-0.1-1-0.2c-0.3-0.2-0.6-0.4-0.8-0.7
				c-0.2-0.3-0.3-0.6-0.3-1c0-0.3,0.1-0.7,0.2-1c0.2-0.3,0.4-0.6,0.7-0.8c0.3-0.2,0.6-0.3,1-0.3c0.3,0,0.7,0.1,1,0.2L109.3,497.4z"
				/>
			<path class="st37" d="M25.4,466c0.5,0.1,0.9,0.3,1.2,0.7c0.3,0.4,0.5,0.8,0.5,1.3c0,0.5-0.1,0.9-0.4,1.3
				c-0.3,0.4-0.7,0.6-1.1,0.7c-0.3,0.1-0.5,0.1-0.8,0L25.4,466z"/>
		</g>
	</g>
</g>
<path class="st42" d="M276.3,145h39.6c0.3,0,0.6,0.3,0.6,0.6v27.2c0,0.3-0.3,0.6-0.6,0.6h-39.6c-0.3,0-0.6-0.3-0.6-0.6v-27.2
	C275.7,145.2,276,145,276.3,145z"/>
<path class="st43" d="M275.5,144.5H315c0.3,0,0.6,0.3,0.6,0.6v26.6c0,0.3-0.3,0.6-0.6,0.6h-39.4c-0.3,0-0.6-0.3-0.6-0.6v-26.6
	C274.9,144.7,275.2,144.5,275.5,144.5z"/>
<path class="st44" d="M276,145.4h38.4c0.1,0,0.2,0.1,0.2,0.2V167c0,0.1-0.1,0.2-0.2,0.2H276c-0.1,0-0.2-0.1-0.2-0.2v-21.3
	C275.8,145.5,275.9,145.4,276,145.4z"/>
<line class="st45" x1="274.7" y1="168.5" x2="315.7" y2="168.5"/>
<path class="st42" d="M291,173.2C291,173.1,291.1,173.1,291,173.2l10,0c0,0,0,0,0,0v6c0,0.4-0.3,0.7-0.7,0.7h-8.7
	c-0.4,0-0.7-0.3-0.7-0.7V173.2z"/>
<path class="st43" d="M290.5,172.4C290.5,172.3,290.5,172.3,290.5,172.4l9.5,0c0,0,0,0,0,0v5.5c0,0.5-0.4,1-1,1h-7.6
	c-0.5,0-1-0.4-1-1V172.4z"/>
<g>
	<path class="st46" d="M469.7,153.2c0-1.8-1.1-3.3-2.7-4c-0.4-0.6-0.6-1.1-0.8-2l-0.2-1.3c-0.1-0.7-0.7-1.3-1.4-1.5
		c-2.4-0.4-4.1-0.4-6.5,0c-0.7,0.1-1.3,0.7-1.4,1.5l-0.2,1.3c-0.1,0.8-0.2,1.3-0.7,2c-1.6,0.7-2.7,2.2-2.7,4.1v10.6
		c0,1.9,1.2,3.5,2.9,4.1c0.3,0.5,0.4,1,0.6,1.7l0.2,1.8c0.1,0.5,0.4,0.8,0.9,0.9c2.8,0.5,4.7,0.5,7.4,0c0.5-0.1,0.8-0.5,0.9-0.9
		l0.2-1.8c0.1-0.7,0.2-1.1,0.5-1.7c1.7-0.6,2.9-2.2,2.9-4.2v-7.5c0.1,0,0.1,0,0.2,0c0.2,0,0.4-0.2,0.4-0.4c0.1-1,0.1-1.6,0-2.5
		c0-0.2-0.2-0.4-0.4-0.4C469.8,153.2,469.8,153.2,469.7,153.2z"/>
	<defs>
		
			<filter id="Adobe_OpacityMaskFilter_00000160875772267852716070000002574156631061227405_" filterUnits="userSpaceOnUse" x="452.8" y="143.8" width="17.9" height="29.3">
			<feColorMatrix  type="matrix" values="1 0 0 0 0  0 1 0 0 0  0 0 1 0 0  0 0 0 1 0"/>
		</filter>
	</defs>
	
		<mask maskUnits="userSpaceOnUse" x="452.8" y="143.8" width="17.9" height="29.3" id="path-1-inside-1_2621_23709_00000024688608123874989420000018262760125316282798_">
		
			<path style="fill-rule:evenodd;clip-rule:evenodd;fill:#FFFFFF;filter:url(#Adobe_OpacityMaskFilter_00000160875772267852716070000002574156631061227405_);" d="
			M469.7,153.2c0-1.8-1.1-3.3-2.7-4c-0.4-0.6-0.6-1.1-0.8-2l-0.2-1.3c-0.1-0.7-0.7-1.3-1.4-1.5c-2.4-0.4-4.1-0.4-6.5,0
			c-0.7,0.1-1.3,0.7-1.4,1.5l-0.2,1.3c-0.1,0.8-0.2,1.3-0.7,2c-1.6,0.7-2.7,2.2-2.7,4.1v10.6c0,1.9,1.2,3.5,2.9,4.1
			c0.3,0.5,0.4,1,0.6,1.7l0.2,1.8c0.1,0.5,0.4,0.8,0.9,0.9c2.8,0.5,4.7,0.5,7.4,0c0.5-0.1,0.8-0.5,0.9-0.9l0.2-1.8
			c0.1-0.7,0.2-1.1,0.5-1.7c1.7-0.6,2.9-2.2,2.9-4.2v-7.5c0.1,0,0.1,0,0.2,0c0.2,0,0.4-0.2,0.4-0.4c0.1-1,0.1-1.6,0-2.5
			c0-0.2-0.2-0.4-0.4-0.4C469.8,153.2,469.8,153.2,469.7,153.2z"/>
	</mask>
	<path class="st48" d="M467,149.2l-0.3,0.2l0.1,0.1l0.1,0L467,149.2z M469.7,153.2l-0.4,0l0,0.6l0.5-0.3L469.7,153.2z M466.3,147.2
		l-0.4,0l0,0l0,0L466.3,147.2z M466.1,145.9l-0.4,0l0,0L466.1,145.9z M464.7,144.4l-0.1,0.4L464.7,144.4z M458.2,144.4l-0.1-0.4
		L458.2,144.4z M456.8,145.9l0.4,0l0,0L456.8,145.9z M456.7,147.2l0.4,0.1l0,0L456.7,147.2z M455.9,149.2l0.1,0.3l0.1,0l0.1-0.1
		L455.9,149.2z M456.1,168l0.3-0.2l-0.1-0.1l-0.1,0L456.1,168z M456.7,169.6l0.4,0l0,0l0,0L456.7,169.6z M456.9,171.4l-0.4,0
		L456.9,171.4z M457.8,172.3l-0.1,0.4l0,0L457.8,172.3z M465.2,172.3l0.1,0.4L465.2,172.3z M466,171.4l-0.4,0L466,171.4z
		 M466.3,169.6l-0.4-0.1l0,0L466.3,169.6z M466.8,168l-0.1-0.3l-0.1,0l-0.1,0.1L466.8,168z M469.7,156.4l0.2-0.3l-0.5-0.3v0.6H469.7
		z M470.3,156.1l0.4,0.1l0,0L470.3,156.1z M470.3,153.5l-0.4,0.1l0,0L470.3,153.5z M466.9,149.5c1.4,0.6,2.4,2,2.4,3.7l0.7,0
		c0-2-1.2-3.6-2.9-4.4L466.9,149.5z M465.9,147.3c0.2,0.9,0.4,1.4,0.8,2.1l0.6-0.4c-0.4-0.6-0.6-1-0.7-1.9L465.9,147.3z M465.7,146
		l0.2,1.3l0.7-0.1l-0.2-1.3L465.7,146z M464.6,144.8c0.6,0.1,1,0.6,1.1,1.2l0.7-0.1c-0.1-0.9-0.8-1.6-1.7-1.8L464.6,144.8z
		 M458.3,144.8c2.3-0.4,4-0.4,6.4,0l0.1-0.7c-2.4-0.4-4.2-0.4-6.6,0L458.3,144.8z M457.2,146c0.1-0.6,0.5-1.1,1.1-1.2l-0.1-0.7
		c-0.9,0.2-1.6,0.9-1.7,1.8L457.2,146z M457,147.3l0.2-1.3l-0.7-0.1l-0.2,1.3L457,147.3z M456.2,149.4c0.5-0.7,0.7-1.3,0.8-2.2
		l-0.7-0.1c-0.1,0.8-0.2,1.2-0.7,1.8L456.2,149.4z M453.6,153.3c0-1.7,1-3.1,2.5-3.7l-0.3-0.7c-1.7,0.7-2.9,2.4-2.9,4.4H453.6z
		 M453.6,163.8v-10.6h-0.7v10.6H453.6z M456.2,167.6c-1.5-0.6-2.6-2.1-2.6-3.8h-0.7c0,2.1,1.3,3.8,3.1,4.5L456.2,167.6z M457,169.6
		c-0.1-0.7-0.3-1.2-0.6-1.8l-0.6,0.4c0.3,0.5,0.4,0.9,0.5,1.6L457,169.6z M457.3,171.4l-0.2-1.8l-0.7,0.1l0.2,1.8L457.3,171.4z
		 M457.8,172c-0.3-0.1-0.5-0.3-0.6-0.6l-0.7,0.1c0.1,0.6,0.5,1.1,1.2,1.2L457.8,172z M465.1,172c-2.7,0.5-4.5,0.5-7.2,0l-0.1,0.7
		c2.8,0.5,4.8,0.5,7.5,0L465.1,172z M465.7,171.4c0,0.3-0.3,0.6-0.6,0.6l0.1,0.7c0.6-0.1,1.1-0.6,1.2-1.2L465.7,171.4z M465.9,169.6
		l-0.2,1.8l0.7,0.1l0.2-1.8L465.9,169.6z M466.5,167.8c-0.4,0.6-0.5,1.1-0.6,1.8l0.7,0.1c0.1-0.7,0.2-1.1,0.5-1.5L466.5,167.8z
		 M469.3,163.8c0,1.8-1.1,3.3-2.7,3.8l0.2,0.7c1.8-0.7,3.2-2.4,3.2-4.5H469.3z M469.3,156.4v7.5h0.7v-7.5H469.3z M469.9,156.1
		C469.9,156.1,469.9,156.1,469.9,156.1l-0.4,0.6c0.1,0.1,0.2,0.1,0.4,0.1V156.1z M469.9,156C469.9,156,469.9,156.1,469.9,156
		l-0.1,0.8c0.4,0,0.7-0.3,0.8-0.7L469.9,156z M469.9,153.6c0.1,0.9,0.1,1.5,0,2.4l0.7,0.1c0.1-1,0.1-1.7,0-2.6L469.9,153.6z
		 M469.9,153.5C469.9,153.5,469.9,153.6,469.9,153.5l0.8-0.1c-0.1-0.4-0.4-0.7-0.8-0.7V153.5z M469.9,153.5
		C469.9,153.5,469.9,153.5,469.9,153.5l0-0.7c-0.1,0-0.3,0-0.4,0.1L469.9,153.5z"/>
	<path class="st49" d="M456,146.7L456,146.7l0.2-1.3c0.1-0.7,0.6-1.2,1.2-1.3c2.3-0.4,4.1-0.4,6.4,0c0.7,0.1,1.1,0.6,1.2,1.3
		l0.2,1.3l0,0l0,0c0.1,0.5,0.2,0.9,0.4,1.3c0.1,0.3,0.3,0.5,0.5,0.8l-10.9,0c0.2-0.3,0.4-0.6,0.5-0.9
		C455.9,147.5,456,147.2,456,146.7z"/>
	<path class="st49" d="M465.3,169.1L465.3,169.1l-0.2,1.8c-0.1,0.4-0.3,0.7-0.7,0.8c-2.7,0.5-4.6,0.5-7.3,0
		c-0.4-0.1-0.7-0.4-0.7-0.8l-0.2-1.8l0,0l0,0c-0.1-0.5-0.2-0.9-0.4-1.3c-0.1-0.3-0.3-0.5-0.5-0.8l10.9,0c-0.2,0.3-0.4,0.6-0.5,0.9
		C465.4,168.2,465.3,168.6,465.3,169.1z"/>
	<path class="st49" d="M456.8,148.5h7.6c2.3,0,4.2,1.9,4.2,4.2v10.6c0,2.3-1.9,4.2-4.2,4.2h-7.6c-2.3,0-4.2-1.9-4.2-4.2v-10.6
		C452.6,150.4,454.5,148.5,456.8,148.5z"/>
	<path class="st50" d="M457.4,155.5h8.5c0.7,0,1.2,0.5,1.2,1.2v5.8c0,0.7-0.5,1.2-1.2,1.2h-8.5c-0.7,0-1.2-0.5-1.2-1.2v-5.8
		C456.2,156.1,456.8,155.5,457.4,155.5z"/>
	<path class="st51" d="M456.1,154.4h9.2c0.6,0,1,0.5,1,1v6.2c0,0.6-0.5,1-1,1h-9.2c-0.6,0-1-0.5-1-1v-6.2
		C455,154.9,455.5,154.4,456.1,154.4z"/>
	<line class="st52" x1="458" y1="152.2" x2="462.1" y2="152.2"/>
	<line class="st52" x1="458" y1="153" x2="464.1" y2="153"/>
	<line class="st52" x1="458.7" y1="165.1" x2="463.3" y2="165.1"/>
	<circle class="st53" cx="456" cy="152.6" r="1"/>
	<path class="st49" d="M468.7,152.9c0.1-0.2,0.2-0.3,0.4-0.3c0.2,0,0.4,0.1,0.4,0.4c0.1,0.9,0.1,1.6,0,2.5c0,0.2-0.2,0.4-0.4,0.4
		c-0.2,0-0.3-0.1-0.4-0.3C468.4,154.5,468.4,153.9,468.7,152.9z"/>
</g>
<g>
	<path class="st35" d="M374.4,144.3h9.3c1.5,0,2.6,1.2,2.6,2.6v24.9c0,1.5-1.2,2.6-2.6,2.6h-9.3c-1.5,0-2.6-1.2-2.6-2.6V147
		C371.7,145.5,372.9,144.3,374.4,144.3z"/>
	<path class="st54" d="M373.5,143.8h9.3c1.5,0,2.8,1.2,2.8,2.8v24.9c0,1.5-1.2,2.8-2.8,2.8h-9.3c-1.5,0-2.8-1.2-2.8-2.8v-24.9
		C370.8,145,372,143.8,373.5,143.8z"/>
	<path class="st55" d="M384.5,146.7v24.7c0,0.9-0.7,1.6-1.6,1.6h-9.4c-0.9,0-1.6-0.7-1.6-1.6v-24.7c0-0.9,0.7-1.6,1.6-1.6h9.4
		C383.8,145.1,384.5,145.8,384.5,146.7z"/>
	<path class="st35" d="M370.6,153.8h0.2c0,0,0.1,0,0.1,0.1v2.2c0,0,0,0.1-0.1,0.1h-0.2c0,0-0.1,0-0.1-0.1L370.6,153.8
		C370.5,153.8,370.5,153.8,370.6,153.8z"/>
	<path class="st35" d="M370.6,150.9h0.2c0,0,0.1,0,0.1,0.1v2.2c0,0,0,0.1-0.1,0.1h-0.2c0,0-0.1,0-0.1-0.1L370.6,150.9
		C370.5,150.9,370.5,150.9,370.6,150.9z"/>
	<path class="st35" d="M370.6,148.7h0.2c0,0,0.1,0,0.1,0.1v1c0,0,0,0.1-0.1,0.1h-0.2c0,0-0.1,0-0.1-0.1L370.6,148.7
		C370.5,148.7,370.5,148.7,370.6,148.7z"/>
	<path class="st35" d="M385.6,151.7h0.2c0,0,0.1,0,0.1,0.1v3.5c0,0,0,0.1-0.1,0.1h-0.2c0,0-0.1,0-0.1-0.1L385.6,151.7
		C385.5,151.7,385.5,151.7,385.6,151.7z"/>
	<path class="st56" d="M375.3,145L375.3,145L375.3,145z M381,145c0,0-0.1,0-0.1,0.1c0,0.7-0.4,1-0.6,1H376c-0.6,0-0.6-0.7-0.6-0.9v0
		c0,0,0,0,0,0c0-0.1,0-0.2-0.1-0.2H381z M381,145C381,145,381,145,381,145L381,145z"/>
	<path class="st57" d="M375.3,145L375.3,145z M375.3,145h-1 M375.3,145c0.1,0,0.1,0,0.1,0.2c0,0,0,0,0,0v0c0,0.2,0,0.9,0.6,0.9h4.3
		c0.2,0,0.6-0.2,0.6-1c0-0.1,0-0.1,0.1-0.1 M375.3,145h5.7 M381,145C381,145,381,145,381,145L381,145z"/>
	<path class="st41" d="M375.5,144.8h5.3v0.3l0,0.3h-5.3L375.5,144.8z"/>
	<rect x="374.1" y="144.6" class="st41" width="7.1" height="0.3"/>
</g>
</svg>
